<?xml version="1.0" standalone="no"?><!DOCTYPE svg PUBLIC "-//W3C//DTD SVG 1.1//EN" "http://www.w3.org/Graphics/SVG/1.1/DTD/svg11.dtd"><svg class="icon" style="" viewBox="0 0 1024 1024" version="1.1" xmlns="http://www.w3.org/2000/svg" p-id="5471" xmlns:xlink="http://www.w3.org/1999/xlink" width="200" height="200"><defs><style type="text/css"><![CDATA[

]]></style></defs><path d="M511.429507 64.467267c-246.829642 0-446.928982 200.099341-446.928982 446.928982 0 246.828618 200.099341 446.926936 446.928982 446.926936 246.831688 0 446.930005-200.098317 446.930005-446.926936C958.359512 264.565585 758.261195 64.467267 511.429507 64.467267L511.429507 64.467267zM775.353478 363.894847c-0.594541 16.60519-6.242168 30.552853-16.950044 41.841967L468.45781 711.303208l3.566222-3.75758c-10.700713 11.277858-24.681122 17.070794-41.929971 17.386996-17.252943 0.317225-31.225165-5.166673-41.928948-16.45067l-124.014478-131.635039c-10.703783-11.283997-15.902178-24.602328-15.609513-39.95806 0.297782-15.353686 5.798053-28.672016 16.507976-39.956014 10.70276-11.281951 23.786753-16.773012 39.249933-16.455787 15.468296 0.319272 28.55229 6.110161 39.250956 17.397229l86.544075 90.257653 251.585969-265.140683c10.703783-11.279904 23.787776-17.076934 39.250956-17.391089 15.46318-0.317225 28.547173 5.170766 39.260166 16.454764C770.891863 333.338924 775.953136 347.286588 775.353478 363.894847L775.353478 363.894847zM775.353478 363.894847" p-id="5472" fill="#656565"></path></svg>